<svg id="SvgjsSvg1006" width="586" height="514" xmlns="http://www.w3.org/2000/svg" version="1.1" xmlns:xlink="http://www.w3.org/1999/xlink" xmlns:svgjs="http://svgjs.com/svgjs"><defs id="SvgjsDefs1007"><marker id="SvgjsMarker1040" markerWidth="16" markerHeight="12" refX="16" refY="6" viewBox="0 0 16 12" orient="auto" markerUnits="userSpaceOnUse"><path id="SvgjsPath1041" d="M0,2 L14,6 L0,11 L0,2" fill="#323232" stroke="#323232" stroke-width="2"></path></marker><marker id="SvgjsMarker1044" markerWidth="16" markerHeight="12" refX="16" refY="6" viewBox="0 0 16 12" orient="auto" markerUnits="userSpaceOnUse"><path id="SvgjsPath1045" d="M0,2 L14,6 L0,11 L0,2" fill="#323232" stroke="#323232" stroke-width="2"></path></marker></defs><g id="SvgjsG1008" transform="translate(25,25)"><path id="SvgjsPath1009" d="M 0 0L 230 0L 230 329L 0 329Z" stroke="#323232" stroke-width="2" fill-opacity="1" fill="#ffffff"></path><g id="SvgjsG1010"><text id="SvgjsText1011" font-family="微软雅黑" text-anchor="middle" font-size="13px" width="39" fill="#323232" font-weight="400" align="middle" anchor="middle" family="微软雅黑" size="13px" weight="400" font-style="" y="154.55" transform="rotate(0)"><tspan id="SvgjsTspan1012" dy="16" x="115"><tspan id="SvgjsTspan1013" style="text-decoration:;">函数图</tspan></tspan></text></g></g><g id="SvgjsG1014" transform="translate(331,25)"><path id="SvgjsPath1015" d="M 0 0L 230 0L 230 329L 0 329Z" stroke="#323232" stroke-width="2" fill-opacity="1" fill="#ffffff"></path><g id="SvgjsG1016"><text id="SvgjsText1017" font-family="微软雅黑" text-anchor="middle" font-size="13px" width="39" fill="#323232" font-weight="400" align="bottom" anchor="middle" family="微软雅黑" size="13px" weight="400" font-style="" y="311.05" transform="rotate(0)"><tspan id="SvgjsTspan1018" dy="16" x="115"><tspan id="SvgjsTspan1019" style="text-decoration:;">流程图</tspan></tspan></text></g></g><g id="SvgjsG1020" transform="translate(384,116)"><path id="SvgjsPath1021" d="M 0 0L 124 0L 124 24L 0 24Z" stroke="#323232" stroke-width="2" fill-opacity="1" fill="#ffffff"></path><g id="SvgjsG1022"><text id="SvgjsText1023" font-family="微软雅黑" text-anchor="middle" font-size="13px" width="39" fill="#323232" font-weight="400" align="middle" anchor="middle" family="微软雅黑" size="13px" weight="400" font-style="" y="2.05" transform="rotate(0)"><tspan id="SvgjsTspan1024" dy="16" x="62"><tspan id="SvgjsTspan1025" style="text-decoration:;">第一步</tspan></tspan></text></g></g><g id="SvgjsG1026" transform="translate(384,170)"><path id="SvgjsPath1027" d="M 0 0L 124 0L 124 24L 0 24Z" stroke="#323232" stroke-width="2" fill-opacity="1" fill="#ffffff"></path><g id="SvgjsG1028"><text id="SvgjsText1029" font-family="微软雅黑" text-anchor="middle" font-size="13px" width="39" fill="#323232" font-weight="400" align="middle" anchor="middle" family="微软雅黑" size="13px" weight="400" font-style="" y="2.05" transform="rotate(0)"><tspan id="SvgjsTspan1030" dy="16" x="62"><tspan id="SvgjsTspan1031" style="text-decoration:;">第二步</tspan></tspan></text></g></g><g id="SvgjsG1032" transform="translate(384,228)"><path id="SvgjsPath1033" d="M 0 0L 124 0L 124 24L 0 24Z" stroke="#323232" stroke-width="2" fill-opacity="1" fill="#ffffff"></path><g id="SvgjsG1034"><text id="SvgjsText1035" font-family="微软雅黑" text-anchor="middle" font-size="13px" width="39" fill="#323232" font-weight="400" align="middle" anchor="middle" family="微软雅黑" size="13px" weight="400" font-style="" y="2.05" transform="rotate(0)"><tspan id="SvgjsTspan1036" dy="16" x="62"><tspan id="SvgjsTspan1037" style="text-decoration:;">第三步</tspan></tspan></text></g></g><g id="SvgjsG1038"><path id="SvgjsPath1039" d="M446 140L446 155L446 155L446 170" stroke="#323232" stroke-width="2" fill="none" marker-end="url(#SvgjsMarker1040)"></path></g><g id="SvgjsG1042"><path id="SvgjsPath1043" d="M446 194L446 211L446 211L446 228" stroke="#323232" stroke-width="2" fill="none" marker-end="url(#SvgjsMarker1044)"></path></g><g id="SvgjsG1046" transform="translate(25,391)"><path id="SvgjsPath1047" d="M 0 0L 530 0L 530 98L 0 98Z" stroke="#323232" stroke-width="2" fill-opacity="1" fill="#ffffff"></path><g id="SvgjsG1048"><text id="SvgjsText1049" font-family="微软雅黑" text-anchor="middle" font-size="13px" width="52" fill="#323232" font-weight="400" align="middle" anchor="middle" family="微软雅黑" size="13px" weight="400" font-style="" y="39.05" transform="rotate(0)"><tspan id="SvgjsTspan1050" dy="16" x="265"><tspan id="SvgjsTspan1051" style="text-decoration:;">计算过程</tspan></tspan></text></g></g></svg>